{"title":"Star.Wars.Episode.I.The.Phantom.Menace.1999.BRRip-VYTO [P2PDL]","uid":12168206,"size":506439224,"categoryP":"video","categoryS":"movies","magnet":"?xt=urn:btih:d5de3372b484be73b50de9f1fff69d35d2765598&amp;dn=Star.Wars.Episode.I.The.Phantom.Menace.1999.BRRip-VYTO+%5BP2PDL%5D&amp;tr=udp%3A%2F%2Ftracker.openbittorrent.com%3A80&amp;tr=udp%3A%2F%2Fopen.demonii.com%3A1337&amp;tr=udp%3A%2F%2Ftracker.coppersurfer.tk%3A6969&amp;tr=udp%3A%2F%2Fexodus.desync.com%3A6969","seeders":5,"leechers":2,"uploader":"ValidusVyto","files":7,"time":1438043250,"description":"____    ____ ____    ____ .___________.  ______   \n     /   /      /   / |           | /  __    \n    /   /      /   /  `---|  |----`|  |  |  | \n        /     _    _/       |  |     |  |  |  | \n       /        |  |         |  |     |  `--'  | \n    __/         |__|         |__|      ______/  \n                                                  \nPresenting Small Encodes with quality for years!\n                                                                                                   \n                                                                                                   \n\nStar.Wars.Episode.I.The.Phantom.Menace.1999.BRRip.480p.x264.AAC-VYTO\n\n\nGenre: Action, Adventure, Fantasy &lt;a href=&quot;\nhttp://www.imdb.com/title/tt0120915/&quot; rel=&quot;nofollow&quot; target=&quot;_NEW&quot;&gt;\nhttp://www.imdb.com/title/tt0120915/&lt;/a&gt;\n\n\nGeneral\nFormat                         : MPEG-4\nFile size                      : 478 MiB\nDuration                       : 2h 16mn\nOverall bit rate               : 490 Kbps\n\nVideo\nFormat                         : AVC\nBit rate                       : 447 Kbps\nWidth                          : 720 pixels\nHeight                         : 304 pixels\nDisplay aspect ratio           : 2.35:1\nFrame rate mode                : Constant\nFrame rate                     : 23.976 fps\nBit depth                      : 8 bits\nStream size                    : 435 MiB (91%)\nWriting library                : x264 core 146 r2538 121396c\n\nAudio\nFormat                         : AAC\nBit rate mode                  : Variable\nBit rate                       : 40.0 Kbps\nChannel(s)                     : 2 channels\nChannel positions              : Front: L R\nSampling rate                  : 48.0 KHz\nStream size                    : 39.0 MiB (8%)\nLanguage                       : English\n\nSubtitle                       : Yes (English)\nSource                         : 1080p.BluRay.DTS.x264-DON\n\n\nScreenshots:\n &lt;a href=&quot;\nhttp://ititli.com/r5&quot; rel=&quot;nofollow&quot; target=&quot;_NEW&quot;&gt;\nhttp://ititli.com/r5&lt;/a&gt; &lt;a href=&quot;\nhttp://ititli.com/rB&quot; rel=&quot;nofollow&quot; target=&quot;_NEW&quot;&gt;\nhttp://ititli.com/rB&lt;/a&gt; &lt;a href=&quot;\nhttp://ititli.com/rN&quot; rel=&quot;nofollow&quot; target=&quot;_NEW&quot;&gt;\nhttp://ititli.com/rN&lt;/a&gt; &lt;a href=&quot;\nhttp://ititli.com/rP&quot; rel=&quot;nofollow&quot; target=&quot;_NEW&quot;&gt;\nhttp://ititli.com/rP&lt;/a&gt; &lt;a href=&quot;\nhttp://ititli.com/rf&quot; rel=&quot;nofollow&quot; target=&quot;_NEW&quot;&gt;\nhttp://ititli.com/rf&lt;/a&gt; &lt;a href=&quot;\nhttp://ititli.com/ru&quot; rel=&quot;nofollow&quot; target=&quot;_NEW&quot;&gt;\nhttp://ititli.com/ru&lt;/a&gt; &lt;a href=&quot;\nhttp://ititli.com/rv&quot; rel=&quot;nofollow&quot; target=&quot;_NEW&quot;&gt;\nhttp://ititli.com/rv&lt;/a&gt; &lt;a href=&quot;\nhttp://ititli.com/rR&quot; rel=&quot;nofollow&quot; target=&quot;_NEW&quot;&gt;\nhttp://ititli.com/rR&lt;/a&gt; &lt;a href=&quot;\nhttp://ititli.com/ry&quot; rel=&quot;nofollow&quot; target=&quot;_NEW&quot;&gt;\nhttp://ititli.com/ry&lt;/a&gt; &lt;a href=&quot;\nhttp://ititli.com/r3&quot; rel=&quot;nofollow&quot; target=&quot;_NEW&quot;&gt;\nhttp://ititli.com/r3&lt;/a&gt; &lt;a href=&quot;\nhttp://ititli.com/rE&quot; rel=&quot;nofollow&quot; target=&quot;_NEW&quot;&gt;\nhttp://ititli.com/rE&lt;/a&gt; &lt;a href=&quot;\nhttp://ititli.com/rQ&quot; rel=&quot;nofollow&quot; target=&quot;_NEW&quot;&gt;\nhttp://ititli.com/rQ&lt;/a&gt;\n\n----------------------------------------------------------------------------------------------------\n\n\nEncoder Notes: Looking For Early Access To Anything You Can Provide DVDScr, R5, DVDR, BluRay, Direct\nAudio, Music Releases and Seedboxes. If You Got anything to offer please contact us.\n\nSupport us by donating BC - 1FgwdzPsd1y25Gea8wP1qni35uGCtmkRCD","torrent":{"xt":"urn:btih:d5de3372b484be73b50de9f1fff69d35d2765598","amp;dn":"Star.Wars.Episode.I.The.Phantom.Menace.1999.BRRip-VYTO+%5BP2PDL%5D","amp;tr":["udp%3A%2F%2Ftracker.openbittorrent.com%3A80","udp%3A%2F%2Fopen.demonii.com%3A1337","udp%3A%2F%2Ftracker.coppersurfer.tk%3A6969","udp%3A%2F%2Fexodus.desync.com%3A6969"],"infoHash":"d5de3372b484be73b50de9f1fff69d35d2765598","infoHashBuffer":{"type":"Buffer","data":[213,222,51,114,180,132,190,115,181,13,233,241,255,246,157,53,210,118,85,152]},"announce":[],"urlList":[]}}